<?xml version="1.0" standalone="no"?>
<!DOCTYPE svg PUBLIC "-//W3C//DTD SVG 20010904//EN"
 "http://www.w3.org/TR/2001/REC-SVG-20010904/DTD/svg10.dtd">
<svg version="1.0" xmlns="http://www.w3.org/2000/svg"
 width="550.000000pt" height="550.000000pt" viewBox="0 0 550.000000 550.000000"
 preserveAspectRatio="xMidYMid meet">
<metadata>
Created by potrace 1.16, written by Peter Selinger 2001-2019
</metadata>
<g transform="translate(0.000000,550.000000) scale(0.100000,-0.100000)"
fill="#000000" stroke="none">
<path d="M0 2750 l0 -2750 2750 0 2750 0 0 2750 0 2750 -2750 0 -2750 0 0
-2750z m4280 783 c0 -8 -26 -1 -71 18 -40 16 -75 29 -79 29 -4 0 -33 -66 -64
-147 -115 -294 -198 -488 -219 -510 -36 -39 -70 -30 -230 62 -81 47 -156 85
-166 85 -30 0 -39 -19 -101 -197 -32 -92 -86 -244 -119 -337 l-61 -169 46
-146 c26 -80 50 -159 55 -174 l8 -28 -86 3 -86 3 -13 45 c-7 25 -18 64 -24 88
-6 23 -14 42 -18 42 -19 0 -42 -66 -42 -121 l0 -59 -43 0 c-36 0 -48 -6 -78
-36 -135 -141 -398 -254 -649 -278 -52 -5 -50 -4 30 18 219 58 404 177 529
339 l41 54 0 341 0 342 85 0 85 0 0 -172 c0 -103 4 -168 9 -162 16 16 106 269
181 509 79 250 112 333 137 353 35 26 75 13 225 -73 82 -47 155 -85 162 -85
22 0 29 16 111 248 57 165 75 226 66 232 -7 4 -45 13 -84 20 l-72 13 204 199
205 200 63 -268 c34 -148 63 -274 63 -281z m-1577 -745 c65 -37 79 -63 85
-167 l5 -91 -92 0 -91 0 0 67 c0 73 -16 103 -55 103 -32 0 -45 -19 -45 -65 0
-49 23 -78 123 -159 121 -98 152 -153 151 -268 -2 -83 -34 -146 -91 -174 -57
-28 -223 -27 -277 2 -69 35 -81 61 -84 180 l-4 104 91 0 91 0 0 -79 c0 -101 4
-111 46 -111 87 0 67 127 -33 206 -144 114 -193 186 -193 284 0 66 28 131 65
156 75 49 231 55 308 12z m827 -38 l0 -50 -85 0 -85 0 0 50 0 50 85 0 85 0 0
-50z m230 -340 l0 -390 -85 0 -85 0 0 390 0 390 85 0 85 0 0 -390z m220 0 l0
-390 -85 0 -85 0 0 390 0 390 85 0 85 0 0 -390z m-450 -75 l0 -315 -85 0 -85
0 0 315 0 315 85 0 85 0 0 -315z"/>
</g>
</svg>
